<svg width="700" height="295" viewBox="0 0 700 295" fill="none" xmlns="http://www.w3.org/2000/svg">
<path d="M602.177 128.59C590.478 131.29 559.581 132.79 559.581 132.79L555.781 144.989C555.781 144.989 571.08 143.689 582.279 144.789C582.279 144.789 585.879 144.489 586.279 148.789C586.479 153.189 585.979 157.788 585.979 157.788C585.979 157.788 585.679 160.488 581.979 161.188C577.679 161.888 548.682 163.188 548.682 163.188L543.982 178.987C543.982 178.987 542.282 182.586 546.182 181.586C549.781 180.586 580.179 174.787 584.179 175.587C588.378 176.587 593.178 182.386 591.778 187.586C590.178 193.885 559.781 213.284 541.382 211.984C541.382 211.984 531.683 212.584 523.583 199.485C515.784 186.986 526.283 163.488 526.283 163.488C526.283 163.488 521.584 152.489 525.083 148.489C525.083 148.489 527.083 146.789 533.083 146.289L540.582 130.89C540.582 130.89 532.083 131.39 527.083 125.191C522.484 119.191 522.084 116.591 525.683 114.991C529.483 112.992 564.68 106.692 588.878 107.492C588.878 107.492 597.378 106.492 604.877 121.191C604.877 121.191 608.277 127.191 602.277 128.59M510.984 187.786C507.985 195.085 499.685 202.785 489.686 198.085C479.487 193.285 463.388 160.488 463.388 160.488C463.388 160.488 457.389 148.289 456.189 148.689C456.189 148.689 454.889 146.289 454.189 159.688C453.189 172.987 454.389 198.885 448.889 202.985C443.89 206.984 437.89 205.285 434.49 200.585C431.691 195.885 430.491 184.586 432.09 164.888C433.89 145.189 438.39 124.191 444.09 117.691C450.089 111.092 454.889 115.891 456.689 117.691C456.689 117.691 464.388 124.691 477.387 145.389L479.587 149.189C479.587 149.189 491.386 168.887 492.586 168.787C492.586 168.787 493.586 169.787 494.386 168.987C495.586 168.687 495.186 162.288 495.186 162.288C495.186 162.288 492.986 140.989 481.987 104.992C481.987 104.992 480.387 100.393 481.487 95.9929C482.487 91.9932 486.786 93.9931 486.786 93.9931C486.786 93.9931 503.385 101.992 511.484 128.99C519.484 155.988 514.084 180.486 511.084 187.786M429.591 118.491C427.991 121.291 427.291 125.191 420.391 126.291C420.391 126.291 353.397 130.99 350.097 135.69C350.097 135.69 347.897 138.49 351.497 139.19C355.296 139.99 370.495 141.989 377.695 142.389C385.494 142.389 411.692 142.589 421.291 154.388C421.291 154.388 426.791 159.988 426.591 172.687C426.391 185.686 424.091 190.286 418.991 194.985C413.692 199.385 368.295 219.783 338.998 188.586C338.998 188.586 325.599 173.587 343.697 162.188C343.697 162.188 356.696 154.188 389.994 163.488C389.994 163.488 399.993 167.087 399.593 170.787C398.993 174.787 391.294 178.787 380.094 178.587C369.295 178.287 361.296 173.087 362.896 173.987C364.396 174.487 351.197 167.587 347.097 172.287C343.097 176.687 344.097 179.287 348.097 181.986C358.096 187.786 397.393 185.686 409.092 172.587C409.092 172.587 413.792 167.287 406.692 162.988C399.693 158.988 379.295 156.488 371.395 156.188C363.896 155.788 335.798 156.188 331.598 148.889C331.598 148.889 327.598 143.689 331.998 129.49C336.598 114.492 369.295 108.692 383.494 107.492C383.494 107.492 422.491 105.892 429.791 113.892C429.791 113.892 430.791 115.691 429.591 118.391M318.999 206.384C314.3 209.884 304.3 208.384 301.4 204.385C298.601 200.885 297.601 187.086 298.101 165.388C298.801 143.189 299.101 115.991 304.1 111.592C309.1 107.292 312.1 111.092 314.1 113.992C316.099 116.991 318.699 120.291 319.099 127.191C319.699 134.19 321.399 170.187 321.399 170.187C321.399 170.187 323.599 202.985 319.099 206.384M328.998 89.3934C315.199 94.0931 305.8 92.5932 297.801 89.0935C294.301 95.393 292.201 97.2928 289.601 97.6928C285.602 98.0928 282.102 91.6933 281.602 89.6934C280.802 88.1935 278.902 85.4937 281.202 79.3942C273.403 72.3947 272.803 62.9955 274.203 56.696C276.002 49.2965 289.201 21.4987 329.198 18.1989C329.198 18.1989 348.797 16.799 352.197 27.1982H352.797C352.797 27.1982 371.795 27.1982 371.395 44.1969C371.395 61.1956 350.397 82.394 328.998 89.6934M346.797 40.9972C334.198 42.997 314.799 59.7957 305.5 73.6946C319.799 76.2944 344.797 75.2945 355.996 52.6963C355.996 52.6963 361.296 38.4973 346.797 40.9972ZM291.501 51.9963C287.502 58.4958 287.302 62.3955 289.201 64.9953C293.901 57.9959 302.2 46.9967 314.699 38.3974C305.1 39.3973 297.001 43.397 291.501 51.9963ZM632.175 205.685C622.976 228.283 615.176 251.181 610.677 285.478C610.677 285.478 609.677 292.178 604.177 289.978C598.678 287.978 589.678 278.979 587.679 266.28C585.679 249.681 593.078 221.683 608.177 189.486C603.777 182.486 600.678 172.087 603.177 157.488C603.177 157.488 607.177 130.49 634.175 106.092C634.175 106.092 637.375 103.392 639.175 104.292C641.374 105.292 640.475 113.892 638.675 118.291C637.075 122.491 625.076 143.289 625.076 143.289C625.076 143.289 617.576 157.488 619.676 168.587C633.875 146.789 666.173 102.592 686.171 116.591C698.87 125.591 698.87 154.588 689.371 171.387C681.871 184.686 660.673 212.184 632.375 205.785M673.972 137.79C666.572 145.789 653.373 160.988 642.974 181.586C653.973 180.386 664.673 174.287 667.972 171.187C673.272 166.488 685.471 153.788 683.571 136.99C683.571 136.99 682.371 128.19 673.972 137.79ZM226.006 217.484C190.609 228.283 157.212 223.283 139.013 218.484C138.513 225.883 137.713 228.983 136.513 230.183C135.113 231.783 123.514 238.382 117.115 228.983C114.315 224.483 112.915 216.384 112.115 208.984C71.1182 190.386 52.1196 162.988 51.5197 161.988C50.5197 160.988 41.2205 151.289 50.5197 139.29C59.2191 128.49 88.0169 117.591 113.815 113.292C114.815 91.2933 117.215 74.2946 120.314 66.7952C124.014 57.7959 128.714 65.7953 132.913 71.7948C136.313 76.2944 138.413 95.593 138.613 110.992C155.412 110.192 165.611 111.392 184.309 114.991C208.908 119.191 225.306 131.79 224.006 145.989C222.807 159.988 210.008 165.788 205.008 166.188C200.008 166.588 192.009 162.888 192.009 162.888C186.409 160.288 191.509 157.888 198.008 155.088C205.208 151.589 203.608 148.089 203.608 148.089C201.008 140.09 169.111 134.79 137.413 134.79C137.413 152.289 138.113 181.286 138.613 198.185C160.811 202.385 177.41 201.485 177.41 201.485C177.41 201.485 258.404 199.185 260.704 147.489C263.203 95.693 179.71 46.0968 118.215 30.498C56.8193 14.3992 22.0219 25.7983 19.0222 27.2982C15.7224 28.8981 18.7222 29.498 18.7222 29.498C18.7222 29.498 22.0219 29.998 28.0215 31.9978C34.021 33.9977 29.2214 36.9975 29.2214 36.9975C18.7222 40.5972 7.02309 38.4973 4.72326 33.6977C2.42344 28.9981 6.22315 24.6984 10.7228 18.3989C14.9225 11.8994 19.7221 12.0994 19.7221 12.0994C95.7163 -14.3986 188.509 33.0978 188.509 33.0978C275.303 76.8944 290.101 128.39 288.501 148.389C287.102 168.087 279.502 201.385 226.006 217.584M59.0191 145.989C50.4198 149.989 56.4193 156.388 56.4193 156.388C72.6181 173.687 92.4165 184.586 111.415 191.386C113.615 161.388 113.415 150.689 113.415 135.59C84.0172 137.59 67.0185 142.389 59.0191 145.989Z" fill="white"/>
</svg>
