<svg width="2280" height="354" viewBox="0 0 2280 354" fill="none" xmlns="http://www.w3.org/2000/svg">
<g clip-path="url(#clip0_2075_515)">
<path d="M41.3734 353.67H9.37344C6.70344 353.67 0.0234375 353.67 0.0234375 349.67C0.0234375 347.02 1.36344 345.67 5.36344 344.33C34.7334 334.98 41.3634 318.98 41.3634 296.33V57.4C41.3634 36.04 34.6834 20.03 5.36344 9.4C1.36344 9.4 0.0234375 6.73 0.0234375 5.4C0.0234375 0.0700002 6.70344 1.4 9.37344 1.4H273.583C333.633 1.4 383.023 49.4 383.023 109.49C383.023 169.58 333.633 217.52 273.583 217.52H140.133V298.93C141.473 320.28 148.133 334.93 176.133 344.3C180.133 345.64 181.463 346.98 181.463 349.64C181.463 353.64 174.793 353.64 172.123 353.64H41.3734V353.67ZM2011.17 224.22H2073.89L2011.17 117.45L2004.48 106.77L1948.48 224.22H2011.17ZM2011.17 0.03H2053.88L2232.69 315.03C2238.04 323.03 2244.69 331.03 2252.69 335.03C2259.36 340.38 2267.36 341.73 2274.03 344.38C2276.71 345.73 2279.37 347.07 2279.37 349.73C2279.37 353.73 2272.7 353.73 2270.02 353.73H2111.22C2108.56 353.73 2100.53 353.73 2100.53 349.73C2100.53 347.07 2103.21 345.73 2105.9 344.38C2113.9 341.73 2119.22 337.72 2121.9 329.72C2124.58 320.36 2121.9 315.05 2115.23 303.01C2106.17 283.75 2096.84 264.623 2087.23 245.63H1937.76L1936.44 248.29C1935.09 253.64 1924.44 272.29 1916.44 292.34C1905.78 313.69 1901.77 319.02 1904.44 329.7C1905.79 337.7 1912.44 341.7 1920.44 344.37C1923.13 345.72 1924.44 347.06 1924.44 349.71C1924.44 353.71 1917.75 353.71 1915.09 353.71H1841.68C1839.02 353.71 1832.33 353.71 1832.33 349.71C1832.33 347.06 1833.68 345.71 1837.67 344.37C1844.36 341.71 1852.34 340.37 1859.02 335.02C1867.02 331.02 1873.71 323.02 1879.02 315.02L1888.37 295.02L1989.8 82.76L1975.1 57.4C1961.78 36.04 1948.42 22.7 1933.74 14.69C1927.07 10.69 1920.39 10.69 1913.74 8.02C1909.74 6.68 1908.39 5.34 1909.74 2.67C1909.74 0 1912.4 1.34 1913.74 0H2011.18L2011.17 0.03ZM1612.17 352.32H1617.51C1863.08 352.32 1860.42 1.32 1617.51 1.32H1416C1412 1.32 1405.34 -0.02 1405.34 5.32C1405.34 6.65 1408 9.32 1410.66 9.32C1440.02 18.66 1446.66 34.68 1448.02 54.71V299C1446.7 320.34 1440.02 335 1410.66 344.36C1408 345.71 1405.34 347.05 1405.34 349.71C1405.34 353.71 1412.01 353.71 1416 353.71H1545.45V352.36H1612.17V352.32ZM1612.17 26.7C1630.2 26.771 1647.48 33.9635 1660.23 46.711C1672.98 59.4585 1680.18 76.7285 1680.26 94.76V257.58C1680.19 275.612 1672.99 292.884 1660.23 305.632C1647.48 318.38 1630.21 325.572 1612.17 325.64H1545.4V26.7H1612.17ZM1103.68 224.22H1166.4L1103.68 117.45L1097 106.77L1041 224.22H1103.68ZM1103.68 0.03H1147.68L1326.51 315.03C1330.51 323.03 1337.19 331.03 1345.2 335.03C1351.86 340.38 1359.89 341.73 1367.89 344.38C1370.55 345.73 1373.21 347.07 1373.21 349.73C1373.21 353.73 1365.21 353.73 1362.55 353.73H1203.8C1201.12 353.73 1194.45 353.73 1194.45 349.73C1194.45 347.07 1195.77 345.73 1199.77 344.38C1206.46 341.73 1213.11 337.72 1214.46 329.72C1217.12 320.36 1214.46 315.05 1209.12 303.01C1199.77 283.01 1189.12 264.31 1179.78 245.63H1030.27L1028.94 248.29C1027.61 253.64 1018.26 272.29 1008.94 292.34C999.603 313.69 994.273 319.02 996.943 329.7C999.613 337.7 1004.94 341.7 1012.94 344.37C1015.6 345.72 1018.27 347.06 1018.27 349.71C1018.27 353.71 1011.6 353.71 1007.61 353.71H935.523C932.853 353.71 924.843 353.71 924.843 349.71C924.843 347.06 927.513 345.71 930.183 344.37C938.183 341.71 944.863 340.37 952.883 335.02C959.543 331.02 967.563 323.02 971.553 315.02L980.893 295.02L1083.66 82.76L1069 57.4C1055.66 36.04 1041 22.7 1027.63 14.69C1019.63 10.69 1014.28 10.69 1006.27 8.02C1003.59 6.68 1000.92 5.34 1002.27 2.67C1003.62 0 1006.27 1.34 1007.62 0H1103.7L1103.68 0.03ZM663.273 233.57C693.973 244.23 731.343 246.89 760.693 237.57L876.813 337.67L886.153 345.67C886.664 346.193 887.05 346.824 887.283 347.516C887.517 348.209 887.592 348.945 887.503 349.67C887.503 353.67 880.823 353.67 878.143 353.67H755.373L663.293 277.6L588.543 217.53V300.29C589.893 320.29 597.893 334.98 625.913 344.29C628.583 345.64 629.913 346.97 629.913 349.63C629.913 353.63 623.233 353.63 620.553 353.63H459.083C455.083 353.63 448.403 353.63 448.403 349.63C448.403 346.97 451.083 345.63 453.733 344.29C485.733 333.63 489.733 317.61 491.103 292.29V61.4C489.763 37.4 485.763 20.03 453.733 9.4C451.063 9.4 448.403 6.73 448.403 5.4C448.403 0.0700002 455.083 1.4 459.083 1.4H719.323C733.46 1.33946 747.47 4.06408 760.553 9.41827C773.636 14.7725 785.537 22.6513 795.575 32.605C805.613 42.5587 813.592 54.3922 819.057 67.4297C824.521 80.4673 827.364 94.4536 827.423 108.59V109.49C827.524 138.025 816.292 165.433 796.194 185.69C776.097 205.947 748.778 217.396 720.243 217.52H635.243C639.243 225.52 648.583 228.2 656.583 232.21C659.263 232.21 660.583 233.57 663.263 233.57H663.273ZM663.273 192.2H674.003C708.693 192.2 738.063 154.82 738.063 106.77C738.003 60.06 708.643 22.7 674.003 22.7H588.533V192.2H663.273ZM216.193 22.71H140.133V192.21H228.223C264.223 192.21 292.223 154.83 292.223 106.78C292.223 60.08 264.223 22.71 228.223 22.71H216.193Z" fill="white"/>
</g>
<defs>
<clipPath id="clip0_2075_515">
<rect width="2279.41" height="353.7" fill="white"/>
</clipPath>
</defs>
</svg>
