<svg width="12" height="11" viewBox="0 0 12 11" fill="none" xmlns="http://www.w3.org/2000/svg">
<path d="M6.6395 9.32487L6.08087 10.5943C5.86617 11.0823 5.18559 11.0823 4.9709 10.5943L4.41227 9.32487C3.9151 8.19506 3.02031 7.29577 1.90425 6.80419L0.366632 6.12699C-0.122211 5.91164 -0.122211 5.206 0.366632 4.99071L1.85622 4.33461C3.00106 3.83046 3.91189 2.89781 4.40052 1.72946L4.96638 0.376581C5.17634 -0.125527 5.87542 -0.125527 6.08544 0.376581L6.6513 1.72946C7.13993 2.89775 8.05076 3.8304 9.1956 4.33461L10.6851 4.99071C11.174 5.20606 11.174 5.91164 10.6851 6.12699L9.14757 6.80419C8.03139 7.29577 7.13661 8.19506 6.6395 9.32487Z" fill="black"/>
</svg>
